<?xml version="1.0" encoding="UTF-8" standalone="no"?>
<!-- Created with Inkscape (http://www.inkscape.org/) -->

<svg
   width="512"
   height="512"
   viewBox="0 0 512 512"
   version="1.1"
   id="svg1"
   sodipodi:docname="loading.svg"
   inkscape:version="1.4.2 (ebf0e940d0, 2025-05-08)"
   xmlns:inkscape="http://www.inkscape.org/namespaces/inkscape"
   xmlns:sodipodi="http://sodipodi.sourceforge.net/DTD/sodipodi-0.dtd"
   xmlns="http://www.w3.org/2000/svg"
   xmlns:svg="http://www.w3.org/2000/svg">
  <sodipodi:namedview
     id="namedview1"
     pagecolor="#ffffff"
     bordercolor="#000000"
     borderopacity="0.25"
     inkscape:showpageshadow="2"
     inkscape:pageopacity="0.0"
     inkscape:pagecheckerboard="0"
     inkscape:deskcolor="#d1d1d1"
     inkscape:document-units="px"
     inkscape:zoom="3.1210937"
     inkscape:cx="526.89862"
     inkscape:cy="337.22153"
     inkscape:window-width="1920"
     inkscape:window-height="1008"
     inkscape:window-x="1920"
     inkscape:window-y="1080"
     inkscape:window-maximized="1"
     inkscape:current-layer="g1143" />
  <defs
     id="defs1">
    <inkscape:path-effect
       effect="bend_path"
       id="path-effect1143"
       is_visible="true"
       lpeversion="1"
       bendpath="M 512,256 A 256,256 0 0 1 256,512 256,256 0 0 1 0,256 256,256 0 0 1 256,0 256,256 0 0 1 512,256 Z"
       prop_scale="0.84"
       scale_y_rel="false"
       vertical="false"
       hide_knot="false" />
    <inkscape:path-effect
       effect="bend_path"
       id="path-effect846"
       is_visible="true"
       lpeversion="1"
       bendpath="M 112.651,256 H 738.61768"
       prop_scale="1"
       scale_y_rel="false"
       vertical="false"
       hide_knot="false" />
    <inkscape:path-effect
       effect="bend_path"
       id="path-effect366"
       is_visible="true"
       lpeversion="1"
       bendpath="M 61.516893,61.1965 H 441.82105"
       prop_scale="1"
       scale_y_rel="false"
       vertical="false"
       hide_knot="false" />
  </defs>
  <g
     inkscape:label="Layer 1"
     inkscape:groupmode="layer"
     id="layer1" />
  <g
     id="g1143"
     transform="matrix(1.0294955,0,0,0.92340167,7.8417004,19.608334)"
     style="stroke-width:1.02563">
    <path
       id="path1"
       style="fill:#003bff;fill-opacity:1;fill-rule:evenodd;stroke-width:0.77538"
       d="m 460.61681,333.9219 c -7.66846,-2.19484 -8.15712,-23.53016 -5.33179,-43.66769 2.82501,-20.13535 8.31314,-34.47623 16.27503,-34.48273 3.82854,-0.003 8.49996,1.23359 10.92598,9.05244 2.44117,7.86769 2.29247,21.38366 0.74984,32.41332 -1.54262,11.02956 -5.14707,20.99838 -9.65584,27.89837 -4.48077,6.85715 -9.27804,9.84105 -12.96322,8.78629 z"
       sodipodi:nodetypes="sscssss" />
    <path
       id="path1-2"
       style="fill:#00b3ff;fill-opacity:1;fill-rule:evenodd;stroke-width:0.775379"
       d="m 472.12455,263.1328 c -8.48871,0.007 -15.31797,-18.3348 -18.53932,-39.60481 -3.22144,-21.27061 -3.66922,-48.18907 4.45255,-50.69526 3.90592,-1.20527 9.09086,1.85715 14.00018,9.08278 4.94135,7.27277 8.94941,17.847 10.72621,29.60493 1.77679,11.75787 2.61227,30.40158 0.0424,38.80533 -2.55323,8.34939 -6.5982,12.80369 -10.68202,12.80703 z"
       sodipodi:nodetypes="sssssss" />
    <g
       id="g1142"
       style="stroke-width:1.02563">
      <path
         d="m 455.11628,351.00699 c -3.79171,-1.35375 -5.69154,-6.70914 -6.15876,-14.0552 -0.46483,-7.30847 0.46652,-16.90523 2.53313,-26.99181 1.5e-4,-7.1e-4 2.9e-4,-10e-4 4.4e-4,-0.002 1.97926,-9.66069 4.88389,-19.07838 8.29491,-25.82104 3.44833,-6.81642 7.33496,-10.73947 11.20865,-10.49608 l 0.003,1.6e-4 c 7.96026,0.5047 13.76775,19.11931 9.03776,42.17162 -4.8e-4,0.002 -9.6e-4,0.005 -0.001,0.007 -2.32771,11.33884 -6.66271,20.89465 -11.41717,27.24526 -4.74563,6.34013 -9.73411,9.28667 -13.50003,7.94213 z"
         style="fill:#003cff;fill-opacity:1;stroke-width:0.77538px"
         id="path1063"
         sodipodi:nodetypes="csscsssscccc" />
      <path
         d="m 448.52902,367.68602 c -3.69462,-1.59722 -5.24157,-7.06313 -5.23699,-14.41955 0.005,-7.31656 1.54298,-16.83484 4.2399,-26.76991 1.9e-4,-7e-4 3.8e-4,-10e-4 5.7e-4,-0.002 2.58425,-9.52028 6.07411,-18.74082 9.90517,-25.26268 3.87131,-6.5904 8.00202,-10.26947 11.86011,-9.78144 l 0.003,4.2e-4 c 7.92237,1.00672 12.5514,19.97325 6.36058,42.69563 -8.4e-4,0.003 -0.002,0.006 -0.003,0.009 -3.04481,11.17082 -7.98406,20.43675 -13.14347,26.47695 -5.1487,6.0252 -10.31844,8.6392 -13.98668,7.0534 z"
         style="fill:#003dff;fill-opacity:1;stroke-width:0.77538px"
         id="path1064" />
      <path
         d="m 440.86973,383.87904 c -3.58023,-1.83858 -4.76071,-7.39331 -4.27733,-14.7266 0.48061,-7.29104 2.62808,-16.68549 5.94802,-26.4189 2.3e-4,-6.8e-4 4.6e-4,-0.001 6.9e-4,-0.002 3.18559,-9.33721 7.24709,-18.31837 11.48041,-24.5864 4.27851,-6.33353 8.63512,-9.7527 12.46156,-9.02176 l 0.002,4.8e-4 c 7.8509,1.50434 11.28186,20.74446 3.6418,43.04071 -7.8e-4,0.002 -0.002,0.005 -0.002,0.007 -3.75521,10.9555 -9.28726,19.89278 -14.83581,25.58761 -5.53657,5.6848 -10.86666,7.94458 -14.41948,6.12008 z"
         style="fill:#003fff;fill-opacity:1;stroke-width:0.77538px"
         id="path1065" />
      <path
         d="m 432.14775,399.51142 c -3.44808,-2.0778 -4.24767,-7.6998 -3.27754,-14.97758 0.96418,-7.23308 3.72388,-16.4599 7.66012,-25.94474 2.7e-4,-6.7e-4 5.5e-4,-10e-4 8.3e-4,-0.002 3.77886,-9.10584 8.40073,-17.80236 13.0195,-23.78562 4.66808,-6.04841 9.234,-9.19131 13.01017,-8.21964 l 0.003,8.4e-4 c 7.74184,1.99678 9.95875,21.42799 0.88111,43.20157 -9.3e-4,0.002 -0.002,0.004 -0.003,0.007 -4.4597,10.69405 -10.57128,19.25627 -16.49391,24.57961 -5.9092,5.31126 -11.38157,7.20129 -14.80076,5.1409 z"
         style="fill:#0040ff;fill-opacity:1;stroke-width:0.77538px"
         id="path1066" />
      <path
         d="m 422.37539,414.50209 c -3.29816,-2.31491 -3.70318,-7.98154 -2.23915,-15.1702 1.45447,-7.1417 4.82882,-16.15489 9.37451,-25.34325 3.2e-4,-6.5e-4 6.3e-4,-10e-4 9.5e-4,-0.002 4.36778,-8.82895 9.53812,-17.20084 14.52498,-22.86817 5.04199,-5.72998 9.79757,-8.58083 13.50796,-7.36992 l 0.003,10e-4 c 7.59764,2.48431 8.58077,22.02825 -1.9214,43.18018 -10e-4,0.003 -0.003,0.006 -0.004,0.009 -5.15699,10.38272 -11.83496,18.52913 -18.11526,23.44595 -6.26651,4.90703 -11.86274,6.41197 -15.1315,4.11769 z"
         style="fill:#0042ff;fill-opacity:1;stroke-width:0.77538px"
         id="path1067" />
      <path
         d="m 411.56615,428.77349 c -3.13041,-2.54997 -3.12674,-8.2395 -1.16128,-15.30652 1.95184,-7.01806 5.94351,-15.77242 11.09157,-24.61649 3.6e-4,-6.2e-4 7.2e-4,-10e-4 10e-4,-0.002 4.94956,-8.50323 10.65587,-16.50514 15.99524,-21.82743 5.39831,-5.38104 10.32552,-7.92368 13.95287,-6.47532 l 0.002,9.3e-4 c 7.41726,2.96649 7.15265,22.54197 -4.76626,42.97849 -10e-4,0.002 -0.002,0.004 -0.004,0.006 -5.84862,10.02511 -13.07914,17.7118 -19.70417,22.19477 -6.60916,4.47127 -12.3077,5.57243 -15.40775,3.04719 z"
         style="fill:#0043ff;fill-opacity:1;stroke-width:0.77538px"
         id="path1068" />
      <path
         d="m 399.73232,442.24434 c -2.11618,-2.00007 -2.49007,-5.52222 -1.6137,-9.90001 1.5395,-7.66565 7.05855,-18.46987 14.38082,-29.24525 5.5259,-8.13186 11.75825,-15.7232 17.42999,-20.66798 5.7378,-5.00135 10.81911,-7.21667 14.34556,-5.53548 l 0.003,10e-4 c 7.19862,3.44204 5.67074,22.97065 -7.65284,42.59125 -0.002,0.003 -0.004,0.005 -0.005,0.008 -6.53288,9.61748 -14.30355,16.80336 -21.25715,20.81948 -1.9261,1.11219 -3.77162,1.97062 -5.49227,2.56922 -4.45895,1.54822 -8.03483,1.34716 -10.13803,-0.64065 z"
         style="fill:#0045ff;fill-opacity:1;stroke-width:0.77538px"
         id="path1069" />
      <path
         d="m 386.92074,454.80627 c -4.07468,-4.47367 -0.28919,-14.69697 7.03905,-26.19218 2.4571,-3.84243 5.36141,-7.89762 8.56941,-11.95688 4.4e-4,-5.6e-4 8.8e-4,-0.001 10e-4,-0.002 6.09441,-7.71174 12.84063,-14.84644 18.82859,-19.38238 6.06036,-4.59079 11.27844,-6.46713 14.68598,-4.55024 l 0.002,10e-4 c 6.94569,3.90985 4.13652,23.31535 -10.58114,42.02075 -0.002,0.002 -0.003,0.004 -0.004,0.006 -3.61136,4.58856 -7.51512,8.56987 -11.45096,11.84809 -3.88288,3.22528 -7.74974,5.72454 -11.33161,7.44935 -7.2393,3.48689 -13.06207,3.71853 -15.75836,0.75824 z"
         style="fill:#0046ff;fill-opacity:1;stroke-width:0.77538px"
         id="path1070" />
      <path
         d="m 373.19909,466.36851 c -2.49344,-3.19469 -1.22043,-8.76212 2.24955,-15.24559 3.44721,-6.44091 9.24793,-14.13218 16.15565,-21.67724 0.49523,-0.54093 0.99249,-1.07685 1.491,-1.607 6.21974,-6.59458 12.85999,-12.56742 18.69936,-16.37374 6.36664,-4.14908 11.70252,-5.66781 14.97388,-3.51966 l 0.003,0.002 c 6.41665,4.21609 2.8501,22.19826 -11.91338,39.41148 -1e-5,-1e-5 -1e-5,0 -1e-5,0 -0.53412,0.62084 -1.08145,1.23837 -1.64182,1.85182 -0.002,0.002 -0.003,0.004 -0.005,0.005 -7.89895,8.64476 -16.70952,14.6391 -24.22706,17.58544 -7.49592,2.93872 -13.32187,2.72322 -15.78506,-0.43272 z"
         style="fill:#0048ff;fill-opacity:1;stroke-width:0.77538px"
         id="path1071" />
      <path
         d="m 358.63607,476.83927 c -2.2387,-3.37986 -0.53665,-8.83264 3.41376,-15.03017 3.92208,-6.15309 10.2854,-13.39162 17.73014,-20.40352 5.2e-4,-4.9e-4 0.001,-9.8e-4 0.002,-10e-4 4.88855,-4.60364 10.01182,-8.87372 14.78762,-12.24346 2.28843,-1.61067 4.53077,-3.04132 6.67933,-4.229 6.65451,-3.67761 12.09168,-4.82089 15.20921,-2.4436 l 0.003,0.002 c 4.22743,3.22555 3.297,12.52325 -3.09256,23.53194 -3.21855,5.52836 -7.75103,11.32641 -13.48273,16.72564 -0.002,0.002 -0.005,0.004 -0.007,0.007 -8.53613,8.03861 -17.78873,13.3591 -25.52421,15.72826 -7.71506,2.36373 -13.50774,1.6932 -15.71772,-1.64331 z"
         style="fill:#0049ff;fill-opacity:1;stroke-width:0.77538px"
         id="path1072" />
      <path
         d="m 343.29903,486.12829 c -1.96317,-3.54999 0.17021,-8.85045 4.58795,-14.71558 4.38309,-5.81913 11.28297,-12.54719 19.22473,-18.97244 7.65428,-6.19266 15.80773,-11.69686 22.63187,-14.83923 4.31844,-1.98855 8.06758,-3.02213 11.01286,-2.89073 1.78007,0.0796 3.26211,0.58582 4.36735,1.56287 l 0.002,0.002 c 1.12318,0.99348 1.80247,2.41301 2.0437,4.18752 0,0 0,1e-5 0,1e-5 1.06323,7.83697 -6.52747,22.6028 -21.6123,34.79192 -0.002,0.002 -0.004,0.003 -0.006,0.005 -9.13273,7.37751 -18.78393,11.98144 -26.6996,13.74668 -7.88994,1.75868 -13.61521,0.62645 -15.55279,-2.87727 z"
         style="fill:#004bff;fill-opacity:1;stroke-width:0.77538px"
         id="path1073" />
      <path
         d="m 327.25864,494.1463 c -0.6788,-1.50917 -0.65174,-3.26266 -0.0553,-5.17121 0,0 0,0 0,0 2.27913,-7.28749 13.20193,-17.38188 26.45939,-26.51272 5.9e-4,-4e-4 10e-4,-8e-4 0.002,-0.001 8.09997,-5.57883 16.63878,-10.45085 23.67737,-13.07438 7.12723,-2.65656 12.69837,-3.00026 15.4487,-0.17919 l 0.002,0.002 c 5.58133,5.73135 -2.62467,23.76631 -22.48992,37.42795 -0.003,0.002 -0.005,0.004 -0.008,0.006 -9.68892,6.66111 -19.69347,10.50387 -27.74532,11.63454 -4.72137,0.66347 -8.64333,0.37695 -11.38224,-0.71903 -1.90119,-0.76075 -3.23262,-1.90933 -3.90881,-3.41267 z"
         style="fill:#004cff;fill-opacity:1;stroke-width:0.77538px"
         id="path1074" />
      <path
         d="m 310.59618,500.80096 c -1.8152,-5.15409 4.16387,-12.155 13.24285,-19.11111 4.45685,-3.40944 9.84297,-6.94716 15.66567,-10.3088 6.1e-4,-3.6e-4 10e-4,-7.1e-4 0.002,-0.001 8.50504,-4.90941 17.3889,-9.1066 24.59621,-11.18315 7.30195,-2.10382 12.88825,-2.03215 15.42254,0.99164 l 0.002,0.002 c 5.1345,6.13324 -4.40118,23.53324 -25.34072,35.62194 -0.002,0.001 -0.004,0.002 -0.006,0.004 -6.68492,3.85807 -13.45168,6.51226 -19.65773,8.00725 -3.2157,0.77294 -6.24997,1.22575 -9.01279,1.38192 -8.11701,0.45801 -13.583,-1.62736 -14.91316,-5.40421 z"
         style="fill:#004eff;fill-opacity:1;stroke-width:0.77538px"
         id="path1075" />
      <path
         d="m 293.43472,506.03293 c -0.99373,-3.81889 2.16636,-8.27701 7.57075,-12.74224 5.36875,-4.43576 13.24092,-9.11739 22.01393,-13.37567 0,0 0,0 0,0 0.55602,-0.26935 1.11697,-0.53764 1.68242,-0.8046 6.4e-4,-3.1e-4 10e-4,-6.1e-4 0.002,-9.1e-4 8.87072,-4.18823 18.05551,-7.66123 25.38886,-9.16446 7.43679,-1.52524 13.00342,-1.0314 15.30184,2.18157 l 10e-4,0.002 c 4.64607,6.5025 -6.18894,23.15936 -28.11802,33.55703 -0.002,10e-4 -0.004,0.002 -0.007,0.003 -0.64588,0.30614 -1.29244,0.60226 -1.93916,0.88837 -10.03873,4.43252 -19.82424,6.31006 -27.4792,6.09786 -8.135,-0.2255 -13.40947,-2.76558 -14.4182,-6.64213 z"
         style="fill:#004fff;fill-opacity:1;stroke-width:0.77538px"
         id="path1076" />
      <path
         d="m 275.8975,509.80084 c -0.68842,-4.01356 3.08332,-8.32915 9.17232,-12.44323 6.04098,-4.08162 14.73552,-8.21506 24.26516,-11.78036 6.6e-4,-2.5e-4 0.001,-5e-4 0.002,-7.5e-4 4.81186,-1.8003 9.65717,-3.38004 14.17206,-4.60123 4.2108,-1.13645 8.24586,-1.99422 11.87231,-2.4363 7.52837,-0.91773 13.04182,0.007 15.08331,3.3938 l 0.002,0.003 c 3.078,5.11325 -2.72061,15.06123 -15.63281,23.56202 -4.39202,2.88668 -9.5087,5.52125 -15.18164,7.64457 -0.003,10e-4 -0.006,0.002 -0.009,0.003 -11.08295,4.14635 -21.79868,5.40548 -29.92577,4.49342 -8.10156,-0.9092 -13.14238,-3.89048 -13.81952,-7.83824 z"
         style="fill:#0051ff;fill-opacity:1;stroke-width:0.77538px"
         id="path1077" />
      <path
         d="m 258.10696,512.06009 c -0.34155,-4.06062 3.78861,-8.03826 10.2026,-11.62093 6.36012,-3.55259 15.37716,-6.94405 25.17293,-9.70103 9.45112,-2.65911 19.09507,-4.55921 26.55584,-4.84348 2.12309,-0.0809 4.06949,-0.0328 5.8148,0.15658 4.4959,0.48823 7.68245,1.92238 8.95069,4.46855 l 0.001,0.002 c 1.28994,2.59717 0.44827,6.07378 -2.32579,9.87732 -5.02366,6.88066 -16.20275,14.52671 -31.02035,18.69351 -0.002,6.7e-4 -0.005,10e-4 -0.007,0.002 -11.39937,3.20386 -22.19673,3.55981 -30.23255,1.95979 -8.00939,-1.59477 -12.77643,-5.00215 -13.11224,-8.99455 z"
         style="fill:#0052ff;fill-opacity:1;stroke-width:0.77538px"
         id="path1078" />
      <path
         d="m 240.18839,512.76934 c 0.004,-0.99369 0.27494,-1.96292 0.77784,-2.90154 3.539,-6.60463 18.95036,-11.97896 36.29629,-15.31653 6.9e-4,-1.3e-4 0.001,-2.7e-4 0.002,-4e-4 9.64461,-1.85585 19.41461,-2.94456 26.87528,-2.60443 7.57162,0.34518 12.87628,2.16375 14.34224,5.84799 l 0.001,0.003 c 1.49181,3.76171 -1.3193,8.94453 -7.72348,13.91656 -6.41625,4.9814 -16.20277,9.52683 -27.93236,11.77929 -0.003,6.1e-4 -0.006,10e-4 -0.01,0.002 -11.63863,2.23318 -22.44368,1.67177 -30.33126,-0.61745 -5.91037,-1.716 -9.93038,-4.32453 -11.52043,-7.20726 0,0 0,0 0,0 -0.51839,-0.93999 -0.78165,-1.91121 -0.77784,-2.90119 z"
         style="fill:#0054ff;fill-opacity:1;stroke-width:0.77538px"
         id="path1079" />
      <path
         d="m 222.2762,511.90029 c 0.48123,-5.24803 8.23318,-9.02427 18.69003,-11.61851 5.7641,-1.42406 12.62098,-2.55367 19.83474,-3.31021 9.76727,-1.02434 19.58872,-1.28743 26.99617,-0.32322 7.51515,0.97823 12.65609,3.23226 13.80865,7.03286 l 9.7e-4,0.003 c 1.17417,3.87579 -2.06204,8.80997 -8.86644,13.23046 -6.81636,4.42827 -16.96426,8.13976 -28.86252,9.38684 -0.003,3.4e-4 -0.006,6.8e-4 -0.01,10e-4 -8.36936,0.87594 -16.24861,0.3845 -22.90183,-1.06683 -2.67814,-0.58697 -5.13367,-1.32428 -7.32302,-2.1756 -7.63733,-2.97059 -11.73284,-7.17065 -11.36701,-11.16003 z"
         style="fill:#0055ff;fill-opacity:1;stroke-width:0.77538px"
         id="path1080" />
      <path
         d="m 204.5093,509.4839 c 1.35336,-7.55449 17.86213,-10.79532 36.45692,-11.44412 0,0 1e-5,0 1e-5,0 1.07095,-0.036 2.1551,-0.0634 3.24985,-0.0818 7e-4,-1e-5 0.001,-3e-5 0.002,-4e-5 9.81235,-0.16525 19.619,0.41237 26.91108,1.99933 7.4013,1.61153 12.34079,4.28773 13.17143,8.17642 l 5.2e-4,0.002 c 0.84536,3.96306 -2.79503,8.61271 -9.95749,12.44533 -7.17374,3.83865 -17.62114,6.68004 -29.61459,6.89346 -0.002,4e-5 -0.005,9e-5 -0.007,1.3e-4 -1.2635,0.0223 -2.51621,0.0148 -3.75556,-0.0213 -10.38395,-0.31508 -19.52136,-2.62568 -26.09058,-5.86318 -7.35337,-3.62216 -11.07331,-8.16038 -10.36635,-12.10664 z"
         style="fill:#0057ff;fill-opacity:1;stroke-width:0.77538px"
         id="path1081" />
      <path
         d="m 187.01006,505.5653 c 1.05927,-3.95196 6.31263,-6.30047 13.59082,-7.49262 7.22371,-1.18323 16.86409,-1.29652 27.01998,-0.57988 4.60316,0.32482 9.1472,0.81454 13.34537,1.44766 4.86014,0.73858 9.41396,1.68984 13.28991,2.89214 7.23171,2.24242 11.93168,5.32682 12.42993,9.27677 l 4.2e-4,0.003 c 0.77428,6.15216 -9.34944,13.24858 -25.72026,15.42008 0,0 0,0 0,0 -4.78581,0.62942 -9.99071,0.81019 -15.42507,0.42592 -0.003,-2.3e-4 -0.007,-4.6e-4 -0.01,-6.9e-4 -11.84587,-0.83944 -22.17198,-4.18412 -29.21481,-8.43816 -7.01994,-4.24021 -10.34505,-9.07996 -9.30652,-12.95455 z"
         style="fill:#0058ff;fill-opacity:1;stroke-width:0.77538px"
         id="path1082" />
      <path
         d="m 169.90332,500.18786 c 1.38822,-3.85203 6.82479,-5.755 14.18626,-6.3309 7.3067,-0.57161 16.93834,0.13086 27.01647,1.72398 7e-4,1.1e-4 10e-4,2.2e-4 0.002,3.3e-4 9.72848,1.53775 19.30767,3.83308 26.19489,6.65178 1.31898,0.53981 2.54288,1.09921 3.66319,1.67886 4.84174,2.5085 7.79141,5.4256 7.91734,8.6555 l 9e-5,0.003 c 0.1272,3.28623 -2.7085,6.49463 -7.91743,8.96486 -7.72716,3.65861 -20.31275,5.48267 -34.46874,3.25088 -0.002,-3.8e-4 -0.005,-7.6e-4 -0.007,-10e-4 -11.72148,-1.84965 -21.7299,-6.05371 -28.39934,-10.89382 -6.64435,-4.82289 -9.54805,-9.92786 -8.18758,-13.70285 z"
         style="fill:#005aff;fill-opacity:1;stroke-width:0.77538px"
         id="path1083" />
      <path
         d="m 153.30763,493.39292 c 1.70764,-3.72356 7.28806,-5.16541 14.67719,-5.12312 7.33289,0.042 16.88669,1.54885 26.81211,3.99322 6.9e-4,1.7e-4 0.001,3.4e-4 0.002,5.1e-4 9.59357,2.36254 18.94356,5.47341 25.57685,8.88818 6.73422,3.46674 10.83827,7.32901 10.64325,11.31382 l -1.7e-4,0.003 c -0.19971,4.05744 -4.9243,7.6241 -12.85835,9.48707 -7.95102,1.86695 -18.7881,1.91082 -30.43366,-0.95218 -0.003,-7.8e-4 -0.006,-0.002 -0.009,-0.002 -11.51971,-2.8339 -21.1474,-7.86405 -27.39412,-13.25423 -6.22634,-5.37155 -8.68885,-10.70589 -7.01568,-14.35429 z"
         style="fill:#005bff;fill-opacity:1;stroke-width:0.77538px"
         id="path1084" />
      <path
         d="m 137.34419,485.24405 c 2.48368,-4.41761 10.53225,-4.86199 20.56614,-3.15771 6.20743,1.05702 13.45407,2.98477 20.90056,5.49613 6.8e-4,2.3e-4 0.001,4.6e-4 0.002,6.8e-4 9.38513,3.16506 18.44544,7.05517 24.77688,11.02883 6.42302,4.03205 10.18484,8.2398 9.64644,12.19747 l -4.5e-4,0.003 c -0.54913,4.02813 -5.56558,7.17709 -13.62991,8.36028 -8.08098,1.18564 -18.88753,0.31577 -30.25687,-3.51724 -0.003,-10e-4 -0.006,-0.002 -0.009,-0.003 -8.59389,-2.89874 -16.0192,-6.99616 -21.64553,-11.44417 -1.69884,-1.34506 -3.22228,-2.71256 -4.55673,-4.0761 -5.74749,-5.87394 -7.75949,-11.39118 -5.79329,-14.88837 z"
         style="fill:#005dff;fill-opacity:1;stroke-width:0.77538px"
         id="path1085" />
      <path
         d="m 122.09509,475.83478 c 4.21811,-6.27481 19.65981,-2.98628 36.87915,3.94774 0,0 0,0 0,0 1.41734,0.57194 2.85296,1.17267 4.30007,1.79982 6.5e-4,2.8e-4 10e-4,5.6e-4 0.002,8.4e-4 9.09943,3.94339 17.80371,8.57652 23.78764,13.07496 6.06745,4.56123 9.46843,9.07802 8.5952,12.9824 l -5.5e-4,0.002 c -0.88931,3.97112 -6.15911,6.68694 -14.29856,7.18872 -8.15559,0.50277 -18.85992,-1.27023 -29.87653,-6.04794 -0.002,-9.7e-4 -0.004,-0.002 -0.007,-0.003 -1.65913,-0.71981 -3.273,-1.48546 -4.8363,-2.29048 -8.64308,-4.45912 -15.52423,-9.99508 -19.96816,-15.34466 -5.25093,-6.31854 -6.81694,-11.97911 -4.57718,-15.31095 z"
         style="fill:#005eff;fill-opacity:1;stroke-width:0.77538px"
         id="path1086" />
      <path
         d="m 107.62823,465.2543 c 5.05217,-6.38489 22.80273,-0.50652 40.65522,9.05379 3.64425,1.95156 7.17478,4.00152 10.42295,6.05442 4.65417,2.94678 8.87966,5.99349 12.21777,8.97029 5.6672,5.05484 8.6843,9.845 7.48504,13.66817 l -0.001,0.003 c -1.93133,6.15094 -14.93513,8.32009 -31.49113,2.88716 0,0 0,0 0,0 -4.1302,-1.35813 -8.39284,-3.16746 -12.63763,-5.44298 -0.003,-0.002 -0.006,-0.003 -0.009,-0.005 -10.42791,-5.59211 -18.52653,-12.81502 -23.2784,-19.55368 -4.73672,-6.7158 -5.85797,-12.48419 -3.36423,-15.63576 z"
         style="fill:#0060ff;fill-opacity:1;stroke-width:0.77538px"
         id="path1087" />
      <path
         d="m 94.011698,453.59532 c 5.525015,-5.98704 22.814942,1.21393 39.897582,12.21916 5.9e-4,3.8e-4 0.001,7.7e-4 0.002,10e-4 8.3858,5.40329 16.22272,11.43725 21.37658,16.86523 0.54881,0.57812 1.06803,1.1499 1.55624,1.71477 0,0 0,0 0,0 4.16637,4.82613 6.11811,9.21641 4.76347,12.53972 l -9.5e-4,0.002 c -1.38009,3.37484 -6.03193,5.16637 -12.81535,4.8957 -8.44279,-0.33898 -19.78646,-3.88044 -30.94734,-11.06083 -0.002,-10e-4 -0.004,-0.003 -0.006,-0.004 -9.93567,-6.39407 -17.44609,-14.22077 -21.667757,-21.31177 -4.20709,-7.06651 -4.88573,-12.90583 -2.158135,-15.86151 z"
         style="fill:#0061ff;fill-opacity:1;stroke-width:0.77538px"
         id="path1088" />
      <path
         d="m 81.30988,440.94398 c 5.955444,-5.55627 22.68673,2.90185 38.91578,15.24704 7.97338,6.06523 15.31194,12.71791 20.01619,18.56077 4.76988,5.9244 6.9526,11.15887 5.13399,14.73646 l -0.002,0.003 c -1.85351,3.63608 -7.63951,4.954 -15.65064,3.44017 -8.02924,-1.51725 -17.9501,-5.84256 -27.4792,-13.07892 -0.003,-0.002 -0.005,-0.004 -0.008,-0.006 -9.398885,-7.1401 -16.292764,-15.51631 -19.967976,-22.9138 -3.661299,-7.37127 -3.898856,-13.24512 -0.958144,-15.98872 z"
         style="fill:#0063ff;fill-opacity:1;stroke-width:0.77538px"
         id="path1089" />
      <path
         d="m 69.594336,427.3982 c 3.398409,-2.73287 9.549509,-1.209 16.714362,2.70838 6.314056,3.45989 13.700102,8.94422 20.988202,15.41677 5.4e-4,4.8e-4 0.001,9.5e-4 0.002,0.001 7.5183,6.67685 14.32494,13.88614 18.56776,20.10128 4.29633,6.29351 6.05338,11.69404 3.95028,15.11744 l -0.002,0.003 c -2.14144,3.47702 -8.01704,4.32615 -15.88323,2.18981 -7.88378,-2.14113 -17.438451,-7.22043 -26.384784,-15.16 -0.0024,-0.002 -0.0048,-0.004 -0.0073,-0.006 -8.287917,-7.35741 -14.312267,-15.64081 -17.595479,-22.98494 -0.206635,-0.4636 -0.402063,-0.9227 -0.586227,-1.37681 -3.09174,-7.62784 -2.893751,-13.49254 0.236538,-16.00979 z"
         style="fill:#0064ff;fill-opacity:1;stroke-width:0.77538px"
         id="path1090" />
      <path
         d="m 58.905169,413.06319 c 5.771055,-3.99807 17.631427,3.27547 30.012998,14.70283 10e-7,0 2e-6,0 2e-6,0 2.074175,1.92007 4.177134,3.97625 6.274533,6.13834 7.020508,7.23825 13.269898,14.94746 17.033728,21.48599 3.80815,6.61552 5.14038,12.14781 2.77048,15.39983 l -0.001,0.002 c -2.4091,3.30389 -8.33773,3.69236 -16.017876,0.95921 -7.697152,-2.7392 -16.838933,-8.5308 -25.161468,-17.12038 -0.0017,-0.002 -0.0034,-0.003 -0.0051,-0.005 -2.364303,-2.44083 -4.522057,-4.96451 -6.457222,-7.51773 -4.729261,-6.25914 -8.043244,-12.56814 -9.835881,-18.10923 -2.528004,-7.8167 -1.913543,-13.64895 1.387259,-15.93568 z"
         style="fill:#0065ff;fill-opacity:1;stroke-width:0.77538px"
         id="path1091" />
      <path
         d="m 49.255255,398.0182 c 7.019984,-4.17336 21.543973,7.6995 34.711828,23.40763 4.58e-4,5.5e-4 9.17e-4,10e-4 0.0014,0.002 1.752792,2.09089 3.434436,4.19781 5.014476,6.28046 4.307418,5.69604 7.98789,11.39004 10.403468,16.42566 3.306913,6.89195 4.217093,12.51873 1.601553,15.58543 l -0.002,0.003 c -4.587795,5.37614 -19.420142,1.14346 -33.681713,-12.56886 10e-7,0 -2e-6,-1e-5 -2e-6,-1e-5 -2.109823,-2.03451 -4.178741,-4.25286 -6.169032,-6.64174 -0.0021,-0.002 -0.0041,-0.005 -0.0062,-0.007 -7.520706,-9.0295 -12.398271,-18.68574 -14.37585,-26.68511 -1.970552,-7.97095 -0.951292,-13.74709 2.502269,-15.80022 z"
         style="fill:#0067ff;fill-opacity:1;stroke-width:0.77538px"
         id="path1092" />
      <path
         d="m 40.658147,382.34342 c 7.301517,-3.69612 21.012217,9.16176 33.024819,25.81954 5.361868,7.43527 10.012778,15.15091 12.878718,21.7167 0.304147,0.69892 0.589769,1.38831 0.855507,2.06679 2.788731,7.12016 3.278644,12.80595 0.436163,15.67251 l -0.0018,0.002 c -3.162124,3.18714 -10.002889,2.26487 -18.106478,-2.65753 -6.666225,-4.05863 -13.920941,-10.69024 -20.197265,-19.41001 -0.0014,-0.002 -0.0028,-0.004 -0.0042,-0.006 -6.847429,-9.51591 -11.044951,-19.47775 -12.467344,-27.59748 -1.418668,-8.09388 -0.0073,-13.78953 3.581882,-15.60643 z"
         style="fill:#0068ff;fill-opacity:1;stroke-width:0.77538px"
         id="path1093" />
      <path
         d="m 33.121951,366.11419 c 7.544742,-3.21073 20.406438,10.55677 31.244818,28.06962 5.338626,8.62625 9.764304,17.52596 12.004513,24.74055 2.265337,7.29551 2.337695,13.00461 -0.710543,15.65434 l -0.0019,0.002 c -3.096038,2.68978 -8.962075,1.73389 -15.832458,-2.61957 -6.885345,-4.36294 -14.501013,-11.98875 -20.767819,-22.1024 -0.0017,-0.003 -0.0034,-0.005 -0.0051,-0.008 -6.164684,-9.95201 -9.680647,-20.17377 -10.555679,-28.38321 -0.870885,-8.17802 0.917633,-13.77546 4.624142,-15.3528 z"
         style="fill:#006aff;fill-opacity:1;stroke-width:0.77538px"
         id="path1094" />
      <path
         d="m 26.660325,349.41058 c 7.74995,-2.71808 19.722656,11.8817 29.36796,30.15439 3.35e-4,6.4e-4 6.7e-4,10e-4 0.001,0.002 4.753546,9.00524 8.546753,18.20588 10.270412,25.56956 1.743008,7.44634 1.403116,13.14549 -1.826402,15.56701 l -0.0027,0.002 c -3.278922,2.45714 -9.056123,1.08362 -15.599457,-3.73508 -6.557148,-4.82887 -13.62645,-12.95625 -19.193642,-23.46767 -0.0015,-0.003 -0.003,-0.006 -0.0045,-0.009 -5.475608,-10.34205 -8.309969,-20.78144 -8.641343,-29.04177 -0.331031,-8.23198 1.821991,-13.70676 5.628655,-15.04185 z"
         style="fill:#006bff;fill-opacity:1;stroke-width:0.77538px"
         id="path1095" />
      <path
         d="m 21.285854,332.3109 c 7.916266,-2.21844 18.963034,13.14059 27.396796,32.07656 4.159048,9.33814 7.320434,18.79257 8.534759,26.27631 1.226829,7.5608 0.487387,13.22825 -2.907014,15.41904 l -0.0021,0.001 c -3.44498,2.22208 -9.113354,0.44776 -15.312663,-4.80653 -6.212049,-5.2651 -12.719709,-13.85283 -17.580037,-24.71562 -9.83e-4,-0.002 -0.002,-0.004 -0.0029,-0.007 -4.778488,-10.68368 -6.929675,-21.29464 -6.724827,-29.57522 0.204877,-8.24956 2.708977,-13.57944 6.598045,-14.66931 z"
         style="fill:#006dff;fill-opacity:1;stroke-width:0.77538px"
         id="path1096" />
      <path
         d="m 17.00918,314.89642 c 8.046784,-1.71316 18.125718,14.32721 25.329633,33.82956 2.5e-4,6.8e-4 4.99e-4,0.001 7.48e-4,0.002 3.555103,9.62408 6.085997,19.28627 6.796456,26.85358 0.717386,7.64109 -0.411263,13.25376 -3.950979,15.21192 l -0.0029,0.002 c -3.592804,1.98359 -9.132612,-0.17574 -14.970848,-5.836 -5.850043,-5.67171 -11.780247,-14.67699 -15.924527,-25.84039 -0.0011,-0.003 -0.0022,-0.006 -0.0033,-0.009 C 10.210696,348.13444 8.7429209,337.39501 9.4799305,329.13067 10.213857,320.9009 13.056291,315.73799 17.00918,314.89642 Z"
         style="fill:#006eff;fill-opacity:1;stroke-width:0.77538px"
         id="path1097" />
      <path
         d="m 13.841778,297.24096 c 8.13896,-1.2017 17.210929,15.451 23.167359,35.42193 2.942412,9.86542 4.842957,19.68653 5.055619,27.30356 0.215455,7.68911 -1.286732,13.22631 -4.957326,14.94764 l -0.003,0.001 c -7.419854,3.47194 -21.844243,-10.43986 -28.8033927,-33.66901 -6.904e-4,-0.002 -0.00138,-0.005 -0.00207,-0.007 C 4.939585,330.02093 4.1562225,319.19799 5.4187275,310.985 6.675381,302.80484 9.8429732,297.83137 13.841778,297.24096 Z"
         style="fill:#0070ff;fill-opacity:1;stroke-width:0.77538px"
         id="path1098" />
      <path
         d="m 11.796875,279.42518 c 8.193312,-0.68462 16.217573,16.50742 20.908521,36.84651 1.62e-4,7e-4 3.24e-4,0.001 4.86e-4,0.002 2.319611,10.05703 3.590851,19.99155 3.312627,27.62567 -0.281445,7.70103 -2.144314,13.14105 -5.92859,14.62227 l -0.0023,9.2e-4 C 22.444283,361.50687 8.9389528,346.6651 3.4718294,323.0278 c -7.228e-4,-0.003 -0.00145,-0.006 -0.00217,-0.009 C 0.83139939,311.60489 0.73443967,300.74353 2.5158738,292.61697 4.2900549,284.52349 7.7691271,279.76199 11.79692,279.42544 Z"
         style="fill:#0071ff;fill-opacity:1;stroke-width:0.77538px"
         id="path1099" />
      <path
         d="m 10.884571,261.5278 c 8.213226,-0.1623 15.145071,17.49433 18.554878,38.10717 1.687758,10.20276 2.331252,20.2076 1.566834,27.82211 -0.769997,7.67792 -2.982236,12.99953 -6.861335,14.23681 l -0.0032,10e-4 c -7.831797,2.49081 -20.3723388,-13.20643 -24.33163985,-37.15611 -5.2311e-4,-0.003 -0.001046,-0.006 -0.001569,-0.009 C -2.1013674,292.9663 -1.5114247,282.11382 0.78383747,274.10885 3.0704689,266.13686 6.8463776,261.6076 10.884571,261.5278 Z"
         style="fill:#0073ff;fill-opacity:1;stroke-width:0.77538px"
         id="path1100" />
      <path
         d="m 11.115381,243.6179 c 4.235949,0.18723 7.786587,5.07013 10.497558,12.3821 2.600086,6.98788 4.560317,16.51222 5.608225,26.8267 7.3e-5,7.2e-4 1.46e-4,10e-4 2.19e-4,0.002 1.04635,10.29832 1.061975,20.32595 -0.180153,27.88774 -1.253393,7.62071 -3.800481,12.80164 -7.759209,13.78996 l -0.0024,6.1e-4 c -7.985001,1.99118 -19.51758088,-14.48822 -21.9519887,-38.65232 -2.41e-4,-0.002 -4.82e-4,-0.005 -7.23e-4,-0.007 C -3.823229,274.41665 -2.6197599,263.81187 0.07109777,256 0.12468012,255.84383 0.17883671,255.68886 0.23355856,255.53509 3.0156351,247.71981 7.0778782,243.43945 11.115381,243.6179 Z"
         style="fill:#0074ff;fill-opacity:1;stroke-width:0.77538px"
         id="path1101" />
      <path
         d="m 12.486846,225.74845 c 6.92635,0.74804 11.19172,13.72098 12.881027,30.25155 1e-6,0 0,0 0,0 0.329728,3.16951 0.565273,6.5004 0.696453,9.92907 0.395788,10.34474 -0.215753,20.3555 -1.931372,27.82495 -1.728923,7.53088 -4.597886,12.54929 -8.617315,13.28731 l -0.0033,6.1e-4 c -8.1024235,1.48542 -18.5832413,-15.70275 -19.4756126,-39.98309 -1.176e-4,-0.003 -2.352e-4,-0.006 -3.527e-4,-0.01 -0.1389183,-3.79431 -0.027318,-7.50139 0.3061033,-11.04924 0.6771885,-7.34434 2.2972306,-13.8931 4.50761622,-19.03448 3.28187798,-7.6377 7.61434668,-11.65149 11.63676378,-11.21707 z"
         style="fill:#0076ff;fill-opacity:1;stroke-width:0.77538px"
         id="path1102" />
      <path
         d="m 14.986023,207.99138 c 8.140927,1.40373 11.575362,20.12635 11.006339,41.02179 -0.0646,2.37223 -0.180691,4.71024 -0.345135,6.98683 -0.543211,7.72087 -1.656786,14.94131 -3.35182,20.65124 -2.198969,7.40201 -5.377867,12.23849 -9.440302,12.72285 l -0.0033,3.9e-4 C 5.5913671,290.23809 -2.6324624,276.36661 -3.915975,256 c 1.2e-6,0 -2e-7,0 -2e-7,0 -0.1634477,-2.52147 -0.2173118,-5.12112 -0.1494961,-7.77749 6.14e-5,-0.002 1.229e-4,-0.005 1.844e-4,-0.007 0.3007829,-11.72112 2.9294919,-22.29561 6.7130102,-29.75341 3.7671261,-7.42373 8.3486937,-11.15844 12.3382997,-10.47051 z"
         style="fill:#0077ff;fill-opacity:1;stroke-width:0.775379px"
         id="path1103" />
      <path
         d="m 18.601567,190.4275 c 8.034316,1.91512 10.29999,20.82819 8.410817,41.68362 -6.5e-5,7.2e-4 -1.3e-4,0.001 -1.95e-4,0.002 -0.796327,8.78397 -2.285044,17.19866 -4.314761,23.88672 -0.366376,1.21312 -0.752802,2.37702 -1.159404,3.48408 -2.660141,7.2405 -6.136452,11.87083 -10.225145,12.09819 l -0.0025,1.4e-4 C 6.5457662,271.84604 1.8211719,265.94909 -0.94136696,256 -2.9727964,248.72236 -3.8842101,239.47897 -2.9834096,229.41458 c 2.861e-4,-0.003 5.721e-4,-0.006 8.582e-4,-0.01 1.0475559,-11.68562 4.3433384,-22.08587 8.597916,-29.30005 4.2356459,-7.18051 9.0481834,-10.61614 12.9862024,-9.67744 z"
         style="fill:#0079ff;fill-opacity:1;stroke-width:0.775379px"
         id="path1104" />
      <path
         d="m 23.322199,173.13554 c 7.889715,2.42044 8.966604,21.44136 5.770791,42.15946 -1.586215,10.28325 -4.101884,20.0088 -7.202831,27.01621 -3.126687,7.06365 -6.893846,11.46513 -10.988851,11.43205 l -0.0034,-3e-5 C 2.6561298,253.6744 -4.4154531,234.796 -0.70802025,210.70743 c 4.8808e-4,-0.003 9.7622e-4,-0.006 0.001464,-0.01 C 1.0810363,199.09407 5.0310868,188.91375 9.7404524,181.97536 14.429094,175.06751 19.452839,171.94848 23.322199,173.13554 Z"
         style="fill:#007aff;fill-opacity:1;stroke-width:0.775379px"
         id="path1105" />
      <path
         d="m 29.134208,156.19355 c 7.710066,2.92041 7.578591,21.96426 3.089984,42.44519 -1.54e-4,7e-4 -3.09e-4,10e-4 -4.63e-4,0.002 -2.229939,10.17531 -5.351406,19.73126 -8.892357,26.53883 -3.5685,6.86052 -7.613556,11.02245 -11.707342,10.73132 l -0.0025,-1.8e-4 C 3.3864522,235.31818 -2.4823297,216.0025 2.749368,192.17668 c 5.161e-4,-0.002 0.00103,-0.005 0.00155,-0.007 2.5205708,-11.47179 7.1127379,-21.39191 12.261184,-28.02284 5.124445,-6.59872 10.339923,-9.38597 14.122124,-7.95335 z"
         style="fill:#007cff;fill-opacity:1;stroke-width:0.775379px"
         id="path1106" />
      <path
         d="m 36.025384,139.68229 c 7.494907,3.415 6.133454,22.39817 0.366795,42.54225 -2.869407,10.02038 -6.581566,19.36075 -10.545497,25.9395 -3.99346,6.62624 -8.297677,10.53376 -12.372389,9.98431 l -0.0033,-4.5e-4 C 5.2793009,217.03639 0.63383385,197.36457 7.3759627,173.90544 c 8.862e-4,-0.003 0.00177,-0.006 0.00266,-0.009 3.2467023,-11.29089 8.4671563,-20.90269 14.0383423,-27.19373 5.546284,-6.26172 10.931318,-8.69563 14.60842,-7.02018 z"
         style="fill:#007dff;fill-opacity:1;stroke-width:0.775379px"
         id="path1107" />
      <path
         d="m 43.986136,123.67642 c 3.668222,1.97711 4.778672,7.74201 4.152001,15.29936 -0.622823,7.51093 -2.992421,17.16798 -6.553103,27.15018 -2.42e-4,6.8e-4 -4.83e-4,0.001 -7.25e-4,0.002 -3.49962,9.81127 -7.792823,18.89848 -12.161447,25.21165 -4.402128,6.36296 -8.945778,9.99902 -12.984392,9.19312 l -0.0033,-6.6e-4 c -8.1103566,-1.62543 -11.5150799,-21.56768 -3.274041,-44.56528 8.12e-4,-0.002 0.0016,-0.005 0.0024,-0.007 3.966755,-11.06388 9.803252,-20.32519 15.781964,-26.24366 5.949784,-5.89096 11.485538,-7.95606 15.040608,-6.03995 z"
         style="fill:#007fff;fill-opacity:1;stroke-width:0.775379px"
         id="path1108" />
      <path
         d="m 53.002065,108.25583 c 3.525878,2.22408 4.238787,8.05129 3.108102,15.54161 -1.123283,7.44128 -4.125009,16.91318 -8.319309,26.62822 -4.126194,9.5573 -8.984636,18.34212 -13.742296,24.36323 -4.794199,6.06608 -9.559483,9.41326 -13.543113,8.35303 l -0.0024,-6.5e-4 c -7.993862,-2.13463 -10.13861,-22.26635 -0.411499,-44.69769 0.0013,-0.003 0.0026,-0.006 0.0038,-0.009 4.679439,-10.78589 11.117738,-19.65036 17.487026,-25.16415 6.337882,-5.48766 12.005118,-7.16864 15.419698,-5.01477 z"
         style="fill:#0080ff;fill-opacity:1;stroke-width:0.775379px"
         id="path1109" />
      <path
         d="m 63.062529,93.499847 c 3.364778,2.468614 3.66524,8.335503 2.02283,15.724493 -1.630943,7.33741 -5.267308,16.57685 -10.087121,25.97309 -3.27e-4,6.4e-4 -6.54e-4,0.001 -9.81e-4,0.002 -4.745241,9.25106 -10.157601,17.69289 -15.286791,23.38752 -5.167653,5.73851 -10.135869,8.77935 -14.046391,7.46685 l -0.0032,-0.001 c -7.837894,-2.63789 -8.707404,-22.87449 2.495028,-44.64117 0.0015,-0.003 0.0029,-0.006 0.0044,-0.009 5.386472,-10.46156 12.414996,-18.88627 19.158185,-23.963233 6.709812,-5.051832 12.486333,-6.329868 15.744023,-3.93982 z"
         style="fill:#0082ff;fill-opacity:1;stroke-width:0.775379px"
         id="path1110" />
      <path
         d="m 74.152577,79.487746 c 3.185601,2.711234 3.0599,8.593738 0.89835,15.846668 -2.145566,7.199296 -6.419452,16.158176 -11.858487,25.188326 -5.358893,8.8971 -11.311649,16.94967 -16.793449,22.28712 -5.525636,5.37905 -10.678286,8.09842 -14.498207,6.5354 l -0.0031,-0.001 c -7.644922,-3.13552 -7.220549,-23.39693 5.446048,-44.39753 0.0012,-0.002 0.0025,-0.004 0.0037,-0.006 6.086943,-10.088024 13.690573,-18.027566 20.793508,-22.63618 7.066128,-4.582839 12.929957,-5.439113 16.011614,-2.816344 z"
         style="fill:#0083ff;fill-opacity:1;stroke-width:0.775379px"
         id="path1111" />
      <path
         d="m 86.257923,66.301941 c 2.919314,2.883629 2.442715,8.573135 -0.09548,15.460298 -2.63039,7.11476 -7.62411,15.925628 -13.798836,24.716221 -5.964228,8.49092 -12.447157,16.11266 -18.264801,21.06054 -5.865654,4.98872 -11.184171,7.36664 -14.892611,5.55374 l -0.003,-0.001 c -7.414552,-3.62467 -5.681838,-23.82784 8.437551,-43.960416 0.0018,-0.0026 0.0037,-0.0053 0.0055,-0.0079 6.779939,-9.663751 14.945974,-17.075181 22.389929,-21.178928 0.150097,-0.08275 0.299643,-0.164002 0.448622,-0.243769 0,0 10e-7,-10e-7 10e-7,-10e-7 7.20629,-3.850143 12.950759,-4.186165 15.773104,-1.39832 z"
         style="fill:#0085ff;fill-opacity:1;stroke-width:0.775379px"
         id="path1112" />
      <path
         d="m 99.318958,54.052031 c 4.516452,5.186974 -0.846441,17.241454 -10.168427,30.390359 0,0 -2e-6,2e-6 -2e-6,2e-6 -2.021201,2.8414 -4.256169,5.766766 -6.650373,8.698158 -6.564043,8.03682 -13.563877,15.18063 -19.700057,19.71016 -6.188483,4.56718 -11.654258,6.58575 -15.235151,4.52654 l -0.0029,-0.002 c -7.14522,-4.10889 -4.085434,-24.175439 11.475653,-43.336882 0.0015,-0.0019 0.003,-0.0038 0.0046,-0.0056 2.679677,-3.298535 5.536313,-6.314341 8.474863,-8.994664 5.20365,-4.732842 10.564515,-8.316192 15.482652,-10.56116 7.711492,-3.520042 13.660069,-3.479097 16.319177,-0.425214 z"
         style="fill:#0086ff;fill-opacity:1;stroke-width:0.775379px"
         id="path1113" />
      <path
         d="m 113.26588,42.82801 c 2.50504,3.365003 1.06468,9.088952 -2.6424,15.70531 -3.68107,6.569935 -9.80723,14.39345 -17.047129,22.050544 -1.356288,1.434443 -2.719403,2.828075 -4.078066,4.170447 -5.839773,5.751297 -11.754853,10.737856 -17.007632,14.0658 -6.495447,4.116169 -12.089134,5.757929 -15.523912,3.454509 l -0.0021,-0.001 C 50.758828,98.111482 53.754746,81.467551 67.1842,64.739791 c 10e-7,0 2e-6,-3e-6 2e-6,-3e-6 1.352606,-1.679585 2.801416,-3.343755 4.343537,-4.977848 0.0022,-0.0024 0.0044,-0.0047 0.0067,-0.0071 8.158387,-8.641849 17.396969,-14.788444 25.412632,-17.73841 7.972149,-2.934802 13.901589,-2.435552 16.318849,0.811534 z"
         style="fill:#0088ff;fill-opacity:1;stroke-width:0.775379px"
         id="path1114" />
      <path
         d="m 128.03154,32.720016 c 2.23523,3.552408 0.35087,9.146694 -3.84771,15.455071 -4.16629,6.259852 -10.86553,13.601769 -18.64797,20.696687 -5.2e-4,4.79e-4 -0.001,9.59e-4 -0.002,0.0014 -6.106406,5.567058 -12.383797,10.518208 -18.021326,14.100373 -1.488565,0.943446 -2.944396,1.800264 -4.355679,2.555886 -6.784588,3.631688 -12.48697,4.876131 -15.757003,2.333512 l -0.0026,-0.0021 c -3.958097,-3.082859 -3.447716,-11.299316 1.790483,-21.323731 3.42507,-6.534925 8.783665,-13.61538 15.892809,-20.095597 0.0024,-0.0022 0.0048,-0.0044 0.0072,-0.0065 8.797553,-8.016368 18.490306,-13.453994 26.726036,-15.786711 8.18849,-2.319338 14.06227,-1.353437 16.2174,2.071672 z"
         style="fill:#0089ff;fill-opacity:1;stroke-width:0.775379px"
         id="path1115" />
      <path
         d="m 143.54654,23.819395 c 1.94368,3.723885 -0.38682,9.149685 -5.06285,15.102194 -4.63656,5.902269 -11.88121,12.702689 -20.16373,19.179408 -8.18111,6.397414 -16.58206,11.846942 -23.553857,14.945137 -7.031875,3.125746 -12.828519,3.954179 -15.913838,1.172889 l -0.0025,-0.0023 c -6.136042,-5.540552 1.107928,-24.693773 20.766691,-40.045487 0.0019,-0.0015 0.0038,-0.003 0.0057,-0.0045 9.396034,-7.334882 19.497684,-12.01826 27.907614,-13.701572 8.36261,-1.674653 14.1436,-0.234545 16.01672,3.354168 z"
         style="fill:#008bff;fill-opacity:1;stroke-width:0.775379px"
         id="path1116" />
      <path
         d="m 159.74503,16.21341 c 1.25427,2.985234 -0.11111,6.778205 -3.13702,10.880187 -4.75426,6.43783 -14.03768,14.155794 -24.74416,21.2634 -5.9e-4,3.92e-4 -0.001,7.84e-4 -0.002,0.0012 -8.64123,5.736694 -17.42064,10.532185 -24.60008,13.098641 -7.24498,2.589885 -13.093686,2.991194 -15.96975,-0.01755 l -0.0017,-0.0018 c -5.7116,-5.984938 2.93895,-24.580873 23.77293,-38.394119 0.003,-0.0018 0.005,-0.0036 0.008,-0.0054 9.95138,-6.59533 20.41339,-10.47751 28.95901,-11.483918 1.90594,-0.22446 3.67617,-0.30059 5.28971,-0.24146 5.55874,0.204653 9.20536,1.998608 10.42477,4.900845 z"
         style="fill:#008cff;fill-opacity:1;stroke-width:0.775379px"
         id="path1117" />
      <path
         d="m 176.52737,9.9901367 c 1.94874,6.0054073 -6.03343,14.0503653 -17.67724,21.9585723 -3.83494,2.599847 -8.16188,5.240699 -12.75262,7.783822 -9.06017,5.019035 -18.1758,9.116007 -25.52012,11.122023 -7.41355,2.025729 -13.27978,1.990086 -15.92401,-1.229854 l -0.002,-0.0026 c -5.243334,-6.395627 4.78103,-24.322143 26.7052,-36.476874 0.003,-0.0016 0.006,-0.0031 0.009,-0.0047 5.22704,-2.896628 10.56882,-5.1248184 15.72406,-6.6594783 5.08905,-1.5117895 9.90918,-2.3176203 14.1544,-2.4589249 8.56587,-0.28512 14.03435,2.117175 15.28394,5.9680369 z"
         style="fill:#008dff;fill-opacity:1;stroke-width:0.775379px"
         id="path1118" />
      <path
         d="m 193.77113,5.1987483 c 0.95889,4.1027178 -2.65871,8.7884727 -8.65805,13.4131227 -5.95154,4.587805 -14.61928,9.400728 -24.15836,13.700939 -6.5e-4,2.9e-4 -0.001,5.8e-4 -0.002,8.7e-4 -0.5361,0.241678 -1.07095,0.479886 -1.60417,0.714475 -8.87362,3.895478 -17.63981,6.956364 -24.701,8.299562 -7.5377,1.433051 -13.38818,0.952101 -15.78006,-2.465076 l -0.001,-0.0021 c -4.60104,-6.584803 5.97956,-22.956745 27.73319,-33.4400235 0,6e-7 0,-1.5e-6 0,-1.5e-6 0.60414,-0.2905828 1.2152,-0.5754551 1.83296,-0.8542816 0.003,-0.00134 0.006,-0.00268 0.009,-0.00402 10.94581,-4.93800879 21.96462,-7.0380295 30.58791,-6.5991542 8.57072,0.4354021 13.82042,3.2923004 14.74205,7.2356537 z"
         style="fill:#008fff;fill-opacity:1;stroke-width:0.775379px"
         id="path1119" />
      <path
         d="m 211.35308,1.8805957 c 0.60739,4.1713757 -3.39592,8.5353993 -9.76243,12.6399523 -6.31312,4.070129 -15.3612,8.147658 -25.23479,11.638086 -6.18007,2.184168 -12.28399,3.991961 -17.76605,5.226388 -3.25517,0.731169 -6.34845,1.275041 -9.18529,1.578491 -7.62119,0.814435 -13.4183,-0.12201 -15.53574,-3.720541 l -0.002,-0.0029 c -2.88962,-4.920038 2.0579,-13.982833 13.5007,-22.1554806 5.18859,-3.6998994 11.57002,-7.08472928155 18.82555,-9.6505995 0.003,-0.00109 0.006,-0.00217 0.009,-0.00326 11.32591,-4.0030102 22.49136,-5.1743402 31.06277,-4.0106751 8.51612,1.1569621 13.50431,4.4534131 14.08777,8.4605317 z"
         style="fill:#0090ff;fill-opacity:1;stroke-width:0.775379px"
         id="path1120" />
      <path
         d="m 229.14844,0.07958403 c 0.24523,4.21149857 -4.1219,8.21535887 -10.81121,11.76221197 -6.62921,3.514988 -15.99334,6.818491 -26.12181,9.470553 -10.01557,2.622503 -19.8594,4.359527 -27.43653,4.534696 -3.53219,0.0813 -6.62954,-0.171704 -9.13172,-0.834079 -2.94435,-0.779523 -5.07645,-2.131288 -6.05805,-4.160129 l -0.001,-0.003 c -0.98474,-2.039578 -0.71217,-4.571954 0.73207,-7.372982 3.94967,-7.6533498 16.58238,-17.0586794 34.17291,-21.6601188 0.002,-6.183e-4 0.005,-0.00124 0.007,-0.00185 11.6306,-3.0402742 22.86976,-3.2690602 31.32524,-1.3776208 8.40435,1.8800017 13.08804,5.5993901 13.32346,9.64234833 z"
         style="fill:#0092ff;fill-opacity:1;stroke-width:0.775379px"
         id="path1121" />
      <path
         d="m 247.03736,-0.1613749 c -0.0875,2.9181538 -2.37952,5.5536409 -6.07113,7.8663523 -6.83947,4.2802176 -19.14468,7.7889886 -32.5524,10.1126966 -10.20495,1.768632 -20.15693,2.678603 -27.7273,2.219301 -7.64755,-0.463203 -13.22919,-2.344566 -14.7292,-6.253026 l -9e-4,-0.0024 c -1.50081,-3.9105369 1.45949,-9.241052 8.15346,-14.2965787 6.7062,-5.0647599 16.90659,-9.6179263 29.09367,-11.7261983 0.003,-5.55e-4 0.006,-0.0011 0.01,-0.0017 11.85482,-2.048563 23.09282,-1.320407 31.37712,1.299772 2.47556,0.783479 4.61114,1.7128307 6.37591,2.7356225 4.07886,2.3666335 6.15631,5.2059824 6.07113,8.0460776 z"
         style="fill:#0093ff;fill-opacity:1;stroke-width:0.775379px"
         id="path1122" />
      <path
         d="m 264.87472,1.1665172 c -0.7177,6.1060896 -10.89459,10.0370868 -23.90849,12.4420148 -4.91612,0.90252 -10.41531,1.617255 -16.14173,2.108655 -10.31403,0.885075 -20.29943,0.953334 -27.80537,-0.138813 -7.58012,-1.103729 -12.99148,-3.443333 -14.16111,-7.4686988 l -9.3e-4,-0.00323 c -1.16941,-4.0246079 2.22775,-9.09352488 9.32849,-13.5724743 7.11263,-4.4864486 17.67537,-8.1702659 30.02083,-9.2314989 0.003,-2.79e-4 0.006,-5.59e-4 0.01,-8.38e-4 6.58268,-0.564644 12.96129,-0.313183 18.75007,0.61178 4.67995,0.752908 8.89468,1.933539 12.45036,3.415815 7.9698,3.3224121 11.93083,7.8156286 11.45813,11.8372851 z"
         style="fill:#0095ff;fill-opacity:1;stroke-width:0.775379px"
         id="path1123" />
      <path
         d="m 282.53191,4.0245361 c -0.85067,4.1452314 -6.11689,6.8920709 -13.51698,8.5927239 -7.3405,1.686957 -17.23231,2.447746 -27.6855,2.434237 -8e-5,-10e-7 -0.36312,-7.87e-4 -0.3632,-7.87e-4 -10.21086,-0.04485 -20.01451,-0.833278 -27.3095,-2.539006 -7.45621,-1.742624 -12.65503,-4.5275405 -13.4856,-8.6412344 l -5e-4,-0.00247 c -1.62587,-8.0753923 15.55944,-19.2811636 40.7956,-19.3768186 0.13831,-3.58e-4 0.27678,-3.7e-4 0.41539,-3.4e-5 0.003,8e-6 0.007,1.7e-5 0.01,2.5e-5 12.06971,0.03151 23.03455,2.723876 30.73677,6.7481852 7.65488,3.9986778 11.21823,8.81604834 10.40371,12.785179 z"
         style="fill:#0096ff;fill-opacity:1;stroke-width:0.775379px"
         id="path1124" />
      <path
         d="m 299.88389,8.369385 c -1.19783,4.061813 -6.6816,6.359586 -14.21067,7.426263 -7.4705,1.058379 -17.40797,0.968539 -27.84682,0.03262 -5.96874,-0.53514 -11.73978,-1.318458 -16.86017,-2.308223 -3.82871,-0.744697 -7.38112,-1.619383 -10.49253,-2.638253 -7.27154,-2.3811612 -12.21981,-5.5972572 -12.69807,-9.7713422 l -3.8e-4,-0.00334 c -0.67396,-5.9105638 8.28547,-12.5310318 23.19098,-15.0615818 5.90162,-0.995534 12.55752,-1.300058 19.58336,-0.670778 0.003,2.91e-4 0.006,5.83e-4 0.01,8.74e-4 12.00337,1.077311 22.69714,4.6924326 30.03418,9.3613136 7.29281,4.63978816 10.43753,9.7424282 9.29037,13.6324457 z"
         style="fill:#0098ff;fill-opacity:1;stroke-width:0.775379px"
         id="path1125" />
      <path
         d="m 316.81291,14.15708 c -1.53532,3.949622 -7.19733,5.782562 -14.79787,6.213501 -7.54124,0.427577 -17.45318,-0.49966 -27.79538,-2.332003 -6.9e-4,-1.23e-4 -10e-4,-2.46e-4 -0.002,-3.69e-4 -10.23073,-1.812479 -19.91746,-4.343638 -26.86549,-7.316067 -2.4565,-1.050617 -4.61124,-2.1712223 -6.38586,-3.3643304 -3.32478,-2.2374157 -5.3416,-4.7500579 -5.41638,-7.48736406 l -9e-5,-0.003358 c -0.0735,-2.74378914 1.83205,-5.39908764 5.41647,-7.63533394 7.49409,-4.6707556 21.99383,-7.2597726 38.57854,-4.3303096 0.002,4.26e-4 0.005,8.51e-4 0.007,0.0013 11.86014,2.097027 22.21417,6.600261 29.14278,11.87777086 6.8838,5.24339034 9.58795,10.59548014 8.11814,14.37658614 z"
         style="fill:#0099ff;fill-opacity:1;stroke-width:0.775379px"
         id="path1126" />
      <path
         d="m 333.1938,21.343625 c -1.12716,2.306197 -3.71554,3.717434 -7.25514,4.419926 -7.98439,1.584115 -21.46937,-0.382178 -35.55523,-4.125967 C 280.31297,18.96102 270.87041,15.607631 264.19059,12.038162 257.43791,8.4288725 253.11144,4.3915201 253.36594,0.18917801 l 1.5e-4,-0.002515 c 0.2564,-4.19584671 5.17902,-7.83239391 13.41106,-9.64791831 8.24931,-1.8193317 19.46352,-1.6950377 31.46317,1.4888666 0.003,8.358e-4 0.006,0.00167 0.009,0.00251 11.63843,3.0903287 21.58681,8.44740846 28.05732,14.2963368 2.47626,2.2383827 4.34135,4.4580149 5.58834,6.5381999 1.97544,3.298439 2.39741,6.230292 1.29837,8.478969 z"
         style="fill:#009bff;fill-opacity:1;stroke-width:0.775379px"
         id="path1127" />
      <path
         d="m 348.9157,29.855595 c -3.04742,5.130299 -13.37188,4.779487 -25.72379,1.855823 C 317.9399,30.465183 312.13663,28.70768 306.19765,26.583652 296.36658,23.06765 287.23395,18.929987 280.86839,14.797808 274.4377,10.623345 270.46763,6.2237441 271.08303,2.0547324 l 4.9e-4,-0.00332 c 1.22272,-8.2523025 21.48477,-12.9040544 45.43317,-4.3409108 0.003,0.0011 0.006,0.00219 0.009,0.00329 6.78283,2.4267009 12.94463,5.6274404 18.10693,9.223283 3.39773,2.370532 6.31466,4.8768924 8.66086,7.3852204 5.91202,6.321703 7.69378,12.045518 5.62202,15.533301 z"
         style="fill:#009cff;fill-opacity:1;stroke-width:0.775379px"
         id="path1128" />
      <path
         d="m 363.90629,39.598659 c -4.78111,6.76848 -22.86562,1.974542 -41.4279,-6.342172 -0.31132,-0.139792 -0.62328,-0.280841 -0.93581,-0.423124 -9.5145,-4.331474 -18.26884,-9.215218 -24.27657,-13.873786 -6.06359,-4.70286 -9.65456,-9.4279665 -8.68723,-13.5368109 l 7.8e-4,-0.00327 c 1.91837,-8.1189727 22.51064,-11.0643265 45.67457,-0.5113439 0.003,0.00135 0.006,0.0027 0.009,0.00405 0.35995,0.164064 0.71811,0.3304254 1.07443,0.4990263 0,3e-7 0,7e-7 0,1e-6 10.46478,4.9612435 18.97378,11.6630245 24.20465,18.2480425 5.38246,6.774578 6.70667,12.623196 4.36418,15.939384 z"
         style="fill:#009eff;fill-opacity:1;stroke-width:0.775379px"
         id="path1129" />
      <path
         d="m 378.09604,50.482302 c -5.37515,6.486265 -23.56481,0.02425 -41.76445,-10.142995 -4.7962,-2.679408 -9.33192,-5.479109 -13.32345,-8.229944 -3.70022,-2.554784 -7.02038,-5.126848 -9.74364,-7.629954 -5.65332,-5.195232 -8.84282,-10.208276 -7.53284,-14.227472 l 0.001,-0.0032 c 1.92683,-5.895597 13.64959,-8.1347791 29.06539,-3.6695472 5.31648,1.5431717 10.92499,3.8529142 16.49681,6.9661452 0.003,0.0016 0.006,0.0032 0.009,0.0048 10.47688,5.856387 18.81393,13.462814 23.68003,20.687638 4.8382,7.180543 5.70535,13.115874 3.11261,16.24457 z"
         style="fill:#009fff;fill-opacity:1;stroke-width:0.775379px"
         id="path1130" />
      <path
         d="m 391.4206,62.420096 c -5.85029,6.063454 -23.5371,-1.742572 -40.92924,-13.375749 -8.74659,-5.850378 -16.60001,-12.144777 -21.74873,-17.731166 -1.31521,-1.427297 -2.47008,-2.824228 -3.43708,-4.178668 -2.86938,-4.023519 -4.11303,-7.721459 -2.88469,-10.636869 l 10e-4,-0.0031 c 1.2309,-2.914902 4.8058,-4.645477 10.06828,-4.918333 8.87608,-0.45883 22.11258,3.275483 35.06441,11.923422 0.002,0.0014 0.004,0.0027 0.006,0.0041 9.96792,6.658026 17.69176,14.884999 21.99286,22.467843 4.27381,7.534709 4.69013,13.522381 1.86682,16.448564 z"
         style="fill:#00a1ff;fill-opacity:1;stroke-width:0.775379px"
         id="path1131" />
      <path
         d="m 403.81181,75.319646 c -0.64953,0.579821 -1.41712,1.001943 -2.28514,1.279183 -7.4922,2.392755 -22.70552,-6.033165 -37.57599,-17.742315 -8.30201,-6.537082 -15.63896,-13.448005 -20.3305,-19.449635 -4.73753,-6.05919 -7.05637,-11.542672 -5.09279,-15.293734 l 10e-4,-0.0022 c 1.95834,-3.741052 7.95241,-5.045059 16.21705,-3.375429 8.2833,1.673399 18.48334,6.291334 28.21813,13.943282 0.003,0.002 0.005,0.004 0.008,0.006 9.41489,7.402133 16.49164,16.191501 20.21067,24.083357 2.91385,6.183243 3.51212,11.262323 2.14056,14.425959 0,0 0,10e-7 0,10e-7 -0.3652,0.842203 -0.87011,1.553635 -1.51079,2.125557 z"
         style="fill:#00a2ff;fill-opacity:1;stroke-width:0.775379px"
         id="path1132" />
      <path
         d="m 415.20246,89.078311 c -4.22406,3.250877 -12.24735,0.297192 -21.29161,-5.648505 -5.39979,-3.559416 -11.35997,-8.323346 -17.26412,-13.741587 -7.8121,-7.169174 -14.60352,-14.636664 -18.82275,-21.005102 -4.25794,-6.426852 -6.13146,-12.085081 -3.87306,-15.671631 l 0.002,-0.0028 c 2.25362,-3.574695 8.33547,-4.395359 16.44306,-2.08622 8.12565,2.314283 17.938,7.704435 27.06069,16.072325 0.002,0.0022 0.005,0.0044 0.007,0.0066 6.62385,6.077103 11.91169,12.858647 15.46505,19.370543 1.15071,2.115141 2.10992,4.183764 2.86911,6.16936 3.09298,8.091705 2.62228,14.060797 -0.59532,16.537095 z"
         style="fill:#00a4ff;fill-opacity:1;stroke-width:0.775379px"
         id="path1133" />
      <path
         d="m 425.5637,103.60237 c -6.50976,4.31263 -19.92971,-4.881876 -33.52105,-18.496886 0,10e-7 0,-2e-6 0,-2e-6 -1.1752,-1.181179 -2.3553,-2.401944 -3.53431,-3.656948 -7.27687,-7.745939 -13.49345,-15.710283 -17.22365,-22.399479 -3.76207,-6.744737 -5.19301,-12.542123 -2.65807,-15.947064 l 0.002,-0.0027 c 2.52816,-3.392039 8.66129,-3.736616 16.57005,-0.814127 7.92626,2.928959 17.30253,9.047879 25.76886,18.075017 0.002,0.0018 0.003,0.0035 0.005,0.0053 1.33075,1.419175 2.60118,2.871192 3.80675,4.346473 6.1577,7.558687 10.46504,15.512035 12.56019,22.449789 2.49997,8.278209 1.60985,14.197687 -1.77576,16.440617 z"
         style="fill:#00a5ff;fill-opacity:1;stroke-width:0.775379px"
         id="path1134" />
      <path
         d="m 434.88401,118.81033 c -7.35034,4.171 -22.10208,-8.37991 -35.39794,-24.765344 -4.4e-4,-5.52e-4 -8.9e-4,-0.0011 -10e-4,-0.0017 -2.54116,-3.13159 -4.91103,-6.263023 -7.04084,-9.297739 -3.52833,-5.04501 -6.47531,-9.94332 -8.50737,-14.327517 -3.24967,-7.013069 -4.24075,-12.913702 -1.4491,-16.121493 l 0.002,-0.0019 c 4.49367,-5.157918 18.13614,-1.56707 31.87224,10.792159 0,0 0,2e-6 0,2e-6 3.11,2.806213 6.16448,6.015268 9.04869,9.588223 0.002,0.0025 0.004,0.005 0.006,0.0075 7.48457,9.273868 12.46024,19.361643 14.38602,27.844749 1.91449,8.43334 0.61674,14.27713 -2.91809,16.28299 z"
         style="fill:#00a7ff;fill-opacity:1;stroke-width:0.775379px"
         id="path1135" />
      <path
         d="m 443.15332,134.62806 c -7.62993,3.67488 -21.53209,-9.87015 -33.6363,-27.21683 -6.09944,-8.741181 -11.09395,-17.544204 -13.80239,-24.711771 -0.0844,-0.223391 -0.16667,-0.44546 -0.24681,-0.666166 0,0 0,0 0,0 -2.508,-6.930051 -2.93586,-12.624886 -0.002,-15.526269 l 0.002,-0.0024 c 2.92441,-2.88868 8.76449,-2.428227 15.85037,1.311115 7.5509,3.993215 16.17656,11.562843 23.44087,21.984422 0.001,0.002 0.003,0.004 0.004,0.0059 6.79928,9.756414 11.06967,20.156549 12.412,28.757899 1.33433,8.55002 -0.35635,14.29826 -4.02254,16.06403 z"
         style="fill:#00a8ff;fill-opacity:1;stroke-width:0.775379px"
         id="path1136" />
      <path
         d="m 450.35783,150.97544 c -7.86886,3.17019 -20.88338,-11.29151 -31.77506,-29.49981 -5.49044,-9.1787 -9.83724,-18.32411 -12.01675,-25.673822 -2.19672,-7.410498 -2.31043,-13.397485 0.93037,-16.160226 l 0.002,-0.0016 c 3.22957,-2.750174 9.28345,-1.709314 16.33628,2.871347 7.06819,4.590633 14.84613,12.575324 21.17438,23.134101 0.002,0.003 0.003,0.006 0.005,0.008 6.10461,10.18804 9.66755,20.85276 10.43257,29.5357 0.7604,8.63052 -1.30832,14.26306 -5.08866,15.78608 z"
         style="fill:#00aaff;fill-opacity:1;stroke-width:0.775379px"
         id="path1137" />
      <path
         d="m 456.4873,167.77325 c -8.0697,2.65871 -20.15741,-12.64136 -29.81597,-31.61035 -4.87255,-9.56947 -8.57361,-19.01117 -10.22981,-26.50937 -1.66956,-7.5551 -1.35176,-13.536145 2.0777,-16.057778 l 0.003,-0.002 c 3.41621,-2.50908 9.37583,-1.038474 16.08749,4.018414 6.72585,5.067574 13.93565,13.563154 19.53799,24.522294 0.001,0.003 0.003,0.006 0.004,0.009 5.4035,10.57287 8.25868,21.45812 8.45245,30.18614 0.19258,8.67468 -2.24127,14.16715 -6.11693,15.44406 z"
         style="fill:#00abff;fill-opacity:1;stroke-width:0.775379px"
         id="path1138" />
      <path
         d="m 461.52782,184.94132 c -8.23011,2.14016 -19.34955,-13.91703 -27.75803,-33.55062 -4.2429,-9.90707 -7.29938,-19.59786 -8.44013,-27.21129 -1.14783,-7.666 -0.41233,-13.61739 3.18849,-15.89527 l 0.003,-0.002 c 7.14728,-4.51602 23.7248,7.86701 33.64314,30.90925 9.5e-4,0.002 0.002,0.004 0.003,0.007 4.69353,10.9068 6.83965,21.96598 6.46842,30.70254 -0.36904,8.68491 -3.15395,14.01246 -7.10757,15.04055 z"
         style="fill:#00adff;fill-opacity:1;stroke-width:0.775379px"
         id="path1139" />
      <path
         d="m 465.47051,202.40504 c -8.35193,1.61539 -18.46347,-15.1269 -25.6013,-35.32055 -3.60516,-10.1994 -6.01855,-20.09123 -6.64793,-27.78176 -0.63451,-7.74366 0.50613,-13.64264 4.25962,-15.6731 l 0.002,-0.001 c 7.44406,-4.02175 23.1597,9.46059 31.56208,33.10588 10e-4,0.003 0.002,0.006 0.003,0.009 3.97577,11.19187 5.41135,22.37844 4.4804,31.087 -0.92429,8.65374 -4.04456,13.79834 -8.05831,14.57466 z"
         style="fill:#00aeff;fill-opacity:1;stroke-width:0.775379px"
         id="path1140" />
      <path
         d="m 468.3021,220.08395 c -4.25684,0.54743 -8.6459,-3.60541 -12.64312,-10.30846 -3.9773,-6.66966 -7.74117,-16.15167 -10.70405,-26.61272 -2.95696,-10.44011 -4.72741,-20.48319 -4.85362,-28.22016 -0.12698,-7.78456 1.40575,-13.60795 5.29377,-15.38771 l 0.003,-0.001 c 7.70524,-3.52214 22.51091,10.98443 29.38242,35.13554 6.6e-4,0.002 10e-4,0.005 0.002,0.007 3.25094,11.43005 3.97411,22.69545 2.49092,31.34099 -1.4734,8.5885 -4.91644,13.52552 -8.97135,14.04698 z"
         style="fill:#00b0ff;fill-opacity:1;stroke-width:0.775379px"
         id="path1141" />
      <path
         d="m 470.00995,237.89958 c -4.28343,0.27708 -8.40273,-4.14497 -11.97249,-11.08856 -3.55135,-6.9078 -6.71857,-16.61744 -9.02,-27.25985 -2.29931,-10.63257 -3.429,-20.78224 -3.05663,-28.52873 0.3737,-7.79053 2.28455,-13.51488 6.2897,-15.04092 l 0.003,-10e-4 c 7.93083,-3.01454 21.77978,12.43984 27.10317,36.99277 6.8e-4,0.003 0.001,0.006 0.002,0.009 2.51762,11.61759 2.52666,22.91617 0.49747,31.45751 -2.01677,8.48905 -5.76757,13.19572 -9.8464,13.45956 z"
         style="fill:#00b1ff;fill-opacity:1;stroke-width:0.775379px"
         id="path1142"
         sodipodi:nodetypes="csscccscscc" />
    </g>
  </g>
</svg>
